mtllib cabinet_C_tall_shelves.mtl
v -0.5000 0.0000 -0.2500
v 0.5000 0.0000 -0.2500
v 0.5000 0.0400 -0.2500
v -0.5000 0.0400 -0.2500
v -0.5000 0.0000 0.2500
v 0.5000 0.0000 0.2500
v 0.5000 0.0400 0.2500
v -0.5000 0.0400 0.2500
v -0.5000 1.9600 -0.2500
v 0.5000 1.9600 -0.2500
v 0.5000 2.0000 -0.2500
v -0.5000 2.0000 -0.2500
v -0.5000 1.9600 0.2500
v 0.5000 1.9600 0.2500
v 0.5000 2.0000 0.2500
v -0.5000 2.0000 0.2500
v -0.5000 0.0400 0.2100
v -0.4600 0.0400 0.2100
v -0.4600 1.9600 0.2100
v -0.5000 1.9600 0.2100
v -0.5000 0.0400 0.2500
v -0.4600 0.0400 0.2500
v -0.4600 1.9600 0.2500
v -0.5000 1.9600 0.2500
v 0.4600 0.0400 0.2100
v 0.5000 0.0400 0.2100
v 0.5000 1.9600 0.2100
v 0.4600 1.9600 0.2100
v 0.4600 0.0400 0.2500
v 0.5000 0.0400 0.2500
v 0.5000 1.9600 0.2500
v 0.4600 1.9600 0.2500
v -0.5000 0.0400 -0.2500
v -0.4600 0.0400 -0.2500
v -0.4600 1.9600 -0.2500
v -0.5000 1.9600 -0.2500
v -0.5000 0.0400 -0.2100
v -0.4600 0.0400 -0.2100
v -0.4600 1.9600 -0.2100
v -0.5000 1.9600 -0.2100
v 0.4600 0.0400 -0.2500
v 0.5000 0.0400 -0.2500
v 0.5000 1.9600 -0.2500
v 0.4600 1.9600 -0.2500
v 0.4600 0.0400 -0.2100
v 0.5000 0.0400 -0.2100
v 0.5000 1.9600 -0.2100
v 0.4600 1.9600 -0.2100
v -0.4600 0.0400 -0.2500
v 0.4600 0.0400 -0.2500
v 0.4600 1.9600 -0.2500
v -0.4600 1.9600 -0.2500
v -0.4600 0.0400 -0.2100
v 0.4600 0.0400 -0.2100
v 0.4600 1.9600 -0.2100
v -0.4600 1.9600 -0.2100
v -0.5000 0.0400 -0.2100
v -0.4600 0.0400 -0.2100
v -0.4600 1.9600 -0.2100
v -0.5000 1.9600 -0.2100
v -0.5000 0.0400 0.2100
v -0.4600 0.0400 0.2100
v -0.4600 1.9600 0.2100
v -0.5000 1.9600 0.2100
v 0.4600 0.0400 -0.2100
v 0.5000 0.0400 -0.2100
v 0.5000 1.9600 -0.2100
v 0.4600 1.9600 -0.2100
v 0.4600 0.0400 0.2100
v 0.5000 0.0400 0.2100
v 0.5000 1.9600 0.2100
v 0.4600 1.9600 0.2100
v -0.4600 0.0400 0.2100
v 0.4600 0.0400 0.2100
v 0.4600 1.9600 0.2100
v -0.4600 1.9600 0.2100
v -0.4600 0.0400 0.2500
v 0.4600 0.0400 0.2500
v 0.4600 1.9600 0.2500
v -0.4600 1.9600 0.2500
v -0.4600 0.5000 -0.2100
v 0.4600 0.5000 -0.2100
v 0.4600 0.5400 -0.2100
v -0.4600 0.5400 -0.2100
v -0.4600 0.5000 0.2100
v 0.4600 0.5000 0.2100
v 0.4600 0.5400 0.2100
v -0.4600 0.5400 0.2100
v -0.4600 0.9800 -0.2100
v 0.4600 0.9800 -0.2100
v 0.4600 1.0200 -0.2100
v -0.4600 1.0200 -0.2100
v -0.4600 0.9800 0.2100
v 0.4600 0.9800 0.2100
v 0.4600 1.0200 0.2100
v -0.4600 1.0200 0.2100
v -0.4600 1.4600 -0.2100
v 0.4600 1.4600 -0.2100
v 0.4600 1.5000 -0.2100
v -0.4600 1.5000 -0.2100
v -0.4600 1.4600 0.2100
v 0.4600 1.4600 0.2100
v 0.4600 1.5000 0.2100
v -0.4600 1.5000 0.2100
g Bottom
usemtl metal
f 1 2 3
f 1 3 4
f 5 7 6
f 5 8 7
f 1 5 6
f 1 6 2
f 4 3 7
f 4 7 8
f 2 6 7
f 2 7 3
f 1 4 8
f 1 8 5
g Top
f 9 10 11
f 9 11 12
f 13 15 14
f 13 16 15
f 9 13 14
f 9 14 10
f 12 11 15
f 12 15 16
f 10 14 15
f 10 15 11
f 9 12 16
f 9 16 13
g Post_LF
f 17 18 19
f 17 19 20
f 21 23 22
f 21 24 23
f 17 21 22
f 17 22 18
f 20 19 23
f 20 23 24
f 18 22 23
f 18 23 19
f 17 20 24
f 17 24 21
g Post_RF
f 25 26 27
f 25 27 28
f 29 31 30
f 29 32 31
f 25 29 30
f 25 30 26
f 28 27 31
f 28 31 32
f 26 30 31
f 26 31 27
f 25 28 32
f 25 32 29
g Post_LB
f 33 34 35
f 33 35 36
f 37 39 38
f 37 40 39
f 33 37 38
f 33 38 34
f 36 35 39
f 36 39 40
f 34 38 39
f 34 39 35
f 33 36 40
f 33 40 37
g Post_RB
f 41 42 43
f 41 43 44
f 45 47 46
f 45 48 47
f 41 45 46
f 41 46 42
f 44 43 47
f 44 47 48
f 42 46 47
f 42 47 43
f 41 44 48
f 41 48 45
g BackGlass
usemtl glass
f 49 50 51
f 49 51 52
f 53 55 54
f 53 56 55
f 49 53 54
f 49 54 50
f 52 51 55
f 52 55 56
f 50 54 55
f 50 55 51
f 49 52 56
f 49 56 53
g LeftGlass
f 57 58 59
f 57 59 60
f 61 63 62
f 61 64 63
f 57 61 62
f 57 62 58
f 60 59 63
f 60 63 64
f 58 62 63
f 58 63 59
f 57 60 64
f 57 64 61
g RightGlass
f 65 66 67
f 65 67 68
f 69 71 70
f 69 72 71
f 65 69 70
f 65 70 66
f 68 67 71
f 68 71 72
f 66 70 71
f 66 71 67
f 65 68 72
f 65 72 69
g FrontDoor
f 73 74 75
f 73 75 76
f 77 79 78
f 77 80 79
f 73 77 78
f 73 78 74
f 76 75 79
f 76 79 80
f 74 78 79
f 74 79 75
f 73 76 80
f 73 80 77
g Shelf_1
f 81 82 83
f 81 83 84
f 85 87 86
f 85 88 87
f 81 85 86
f 81 86 82
f 84 83 87
f 84 87 88
f 82 86 87
f 82 87 83
f 81 84 88
f 81 88 85
g Shelf_2
f 89 90 91
f 89 91 92
f 93 95 94
f 93 96 95
f 89 93 94
f 89 94 90
f 92 91 95
f 92 95 96
f 90 94 95
f 90 95 91
f 89 92 96
f 89 96 93
g Shelf_3
f 97 98 99
f 97 99 100
f 101 103 102
f 101 104 103
f 97 101 102
f 97 102 98
f 100 99 103
f 100 103 104
f 98 102 103
f 98 103 99
f 97 100 104
f 97 104 101
