mtllib cabinet_B_wall_flat.mtl
v -0.5000 0.0000 -0.1500
v 0.5000 0.0000 -0.1500
v 0.5000 0.5000 -0.1500
v -0.5000 0.5000 -0.1500
v -0.5000 0.0000 -0.1100
v 0.5000 0.0000 -0.1100
v 0.5000 0.5000 -0.1100
v -0.5000 0.5000 -0.1100
v -0.5000 0.4600 -0.1500
v 0.5000 0.4600 -0.1500
v 0.5000 0.5000 -0.1500
v -0.5000 0.5000 -0.1500
v -0.5000 0.4600 0.1500
v 0.5000 0.4600 0.1500
v 0.5000 0.5000 0.1500
v -0.5000 0.5000 0.1500
v -0.5000 0.0000 -0.1500
v 0.5000 0.0000 -0.1500
v 0.5000 0.0400 -0.1500
v -0.5000 0.0400 -0.1500
v -0.5000 0.0000 0.1500
v 0.5000 0.0000 0.1500
v 0.5000 0.0400 0.1500
v -0.5000 0.0400 0.1500
v -0.5000 0.0000 -0.1500
v -0.4600 0.0000 -0.1500
v -0.4600 0.5000 -0.1500
v -0.5000 0.5000 -0.1500
v -0.5000 0.0000 0.1500
v -0.4600 0.0000 0.1500
v -0.4600 0.5000 0.1500
v -0.5000 0.5000 0.1500
v 0.4600 0.0000 -0.1500
v 0.5000 0.0000 -0.1500
v 0.5000 0.5000 -0.1500
v 0.4600 0.5000 -0.1500
v 0.4600 0.0000 0.1500
v 0.5000 0.0000 0.1500
v 0.5000 0.5000 0.1500
v 0.4600 0.5000 0.1500
v -0.4600 0.0400 0.1100
v 0.4600 0.0400 0.1100
v 0.4600 0.4600 0.1100
v -0.4600 0.4600 0.1100
v -0.4600 0.0400 0.1500
v 0.4600 0.0400 0.1500
v 0.4600 0.4600 0.1500
v -0.4600 0.4600 0.1500
g Back
usemtl metal
f 1 2 3
f 1 3 4
f 5 7 6
f 5 8 7
f 1 5 6
f 1 6 2
f 4 3 7
f 4 7 8
f 2 6 7
f 2 7 3
f 1 4 8
f 1 8 5
g TopFrame
f 9 10 11
f 9 11 12
f 13 15 14
f 13 16 15
f 9 13 14
f 9 14 10
f 12 11 15
f 12 15 16
f 10 14 15
f 10 15 11
f 9 12 16
f 9 16 13
g BottomFrame
f 17 18 19
f 17 19 20
f 21 23 22
f 21 24 23
f 17 21 22
f 17 22 18
f 20 19 23
f 20 23 24
f 18 22 23
f 18 23 19
f 17 20 24
f 17 24 21
g LeftFrame
f 25 26 27
f 25 27 28
f 29 31 30
f 29 32 31
f 25 29 30
f 25 30 26
f 28 27 31
f 28 31 32
f 26 30 31
f 26 31 27
f 25 28 32
f 25 32 29
g RightFrame
f 33 34 35
f 33 35 36
f 37 39 38
f 37 40 39
f 33 37 38
f 33 38 34
f 36 35 39
f 36 39 40
f 34 38 39
f 34 39 35
f 33 36 40
f 33 40 37
g FrontDoor
usemtl glass
f 41 42 43
f 41 43 44
f 45 47 46
f 45 48 47
f 41 45 46
f 41 46 42
f 44 43 47
f 44 47 48
f 42 46 47
f 42 47 43
f 41 44 48
f 41 48 45
