# Blender 5.0.1
# www.blender.org
mtllib Gablota_nowa_a.mtl
o Cube.004
v 0.445000 0.910000 0.295000
v 0.445000 -0.010000 0.295000
v 0.445000 0.910000 0.245000
v 0.445000 -0.010000 0.245000
v 0.495000 0.910000 0.295000
v 0.495000 -0.010000 0.295000
v 0.495000 0.910000 0.245000
v 0.495000 -0.010000 0.245000
v -0.500000 0.910000 0.300000
v -0.500000 0.950000 0.300000
v -0.500000 0.910000 -0.300000
v -0.500000 0.950000 -0.300000
v 0.500000 0.910000 0.300000
v 0.500000 0.950000 0.300000
v 0.500000 0.910000 -0.300000
v 0.500000 0.950000 -0.300000
v -0.495000 0.910000 -0.245000
v -0.495000 -0.010000 -0.245000
v -0.495000 0.910000 -0.295000
v -0.495000 -0.010000 -0.295000
v -0.445000 0.910000 -0.245000
v -0.445000 -0.010000 -0.245000
v -0.445000 0.910000 -0.295000
v -0.445000 -0.010000 -0.295000
v 0.445000 0.910000 -0.245000
v 0.445000 -0.010000 -0.245000
v 0.445000 0.910000 -0.295000
v 0.445000 -0.010000 -0.295000
v 0.495000 0.910000 -0.245000
v 0.495000 -0.010000 -0.245000
v 0.495000 0.910000 -0.295000
v 0.495000 -0.010000 -0.295000
v -0.495000 0.910000 0.295000
v -0.495000 -0.010000 0.295000
v -0.495000 0.910000 0.245000
v -0.495000 -0.010000 0.245000
v -0.445000 0.910000 0.295000
v -0.445000 -0.010000 0.295000
v -0.445000 0.910000 0.245000
v -0.445000 -0.010000 0.245000
vn -1.0000 -0.0000 -0.0000
vn -0.0000 -0.0000 -1.0000
vn 1.0000 -0.0000 -0.0000
vn -0.0000 -0.0000 1.0000
vn -0.0000 1.0000 -0.0000
vn -0.0000 -1.0000 -0.0000
vt 0.375000 0.000000
vt 0.625000 0.000000
vt 0.625000 0.250000
vt 0.375000 0.250000
vt 0.625000 0.500000
vt 0.375000 0.500000
vt 0.625000 0.750000
vt 0.375000 0.750000
vt 0.625000 1.000000
vt 0.375000 1.000000
vt 0.125000 0.500000
vt 0.125000 0.750000
vt 0.875000 0.500000
vt 0.875000 0.750000
s 0
usemtl Material.001
f 1/1/1 3/4/1 4/3/1 2/2/1
f 3/4/2 7/6/2 8/5/2 4/3/2
f 7/6/3 5/8/3 6/7/3 8/5/3
f 5/8/4 1/10/4 2/9/4 6/7/4
f 3/11/5 1/12/5 5/8/5 7/6/5
f 8/5/6 6/7/6 2/14/6 4/13/6
usemtl Material.006
f 9/1/3 11/4/3 12/3/3 10/2/3
f 11/4/4 15/6/4 16/5/4 12/3/4
f 15/6/1 13/8/1 14/7/1 16/5/1
f 13/8/2 9/10/2 10/9/2 14/7/2
f 11/11/5 9/12/5 13/8/5 15/6/5
f 16/5/6 14/7/6 10/14/6 12/13/6
usemtl Material.007
f 17/1/1 19/4/1 20/3/1 18/2/1
f 19/4/2 23/6/2 24/5/2 20/3/2
f 23/6/3 21/8/3 22/7/3 24/5/3
f 21/8/4 17/10/4 18/9/4 22/7/4
f 19/11/5 17/12/5 21/8/5 23/6/5
f 24/5/6 22/7/6 18/14/6 20/13/6
usemtl Material.008
f 25/1/1 27/4/1 28/3/1 26/2/1
f 27/4/2 31/6/2 32/5/2 28/3/2
f 31/6/3 29/8/3 30/7/3 32/5/3
f 29/8/4 25/10/4 26/9/4 30/7/4
f 27/11/5 25/12/5 29/8/5 31/6/5
f 32/5/6 30/7/6 26/14/6 28/13/6
usemtl Material.009
f 33/1/1 35/4/1 36/3/1 34/2/1
f 35/4/2 39/6/2 40/5/2 36/3/2
f 39/6/3 37/8/3 38/7/3 40/5/3
f 37/8/4 33/10/4 34/9/4 38/7/4
f 35/11/5 33/12/5 37/8/5 39/6/5
f 40/5/6 38/7/6 34/14/6 36/13/6
o Blat.001
v 0.440000 1.700000 0.280000
v 0.440000 0.920000 0.280000
v 0.440000 1.700000 -0.280000
v 0.440000 0.920000 -0.280000
v 0.480000 1.700000 0.280000
v 0.480000 0.920000 0.280000
v 0.480000 1.700000 -0.280000
v 0.480000 0.920000 -0.280000
v -0.480000 1.700000 0.280000
v -0.480000 0.920000 0.280000
v -0.480000 1.700000 -0.280000
v -0.480000 0.920000 -0.280000
v -0.440000 1.700000 0.280000
v -0.440000 0.920000 0.280000
v -0.440000 1.700000 -0.280000
v -0.440000 0.920000 -0.280000
v -0.480000 1.700000 0.280000
v -0.480000 0.920000 0.280000
v -0.480000 1.700000 0.240000
v -0.480000 0.920000 0.240000
v 0.480000 1.700000 0.280000
v 0.480000 0.920000 0.280000
v 0.480000 1.700000 0.240000
v 0.480000 0.920000 0.240000
v -0.480000 1.700000 -0.240000
v -0.480000 0.920000 -0.240000
v -0.480000 1.700000 -0.280000
v -0.480000 0.920000 -0.280000
v 0.480000 1.700000 -0.240000
v 0.480000 0.920000 -0.240000
v 0.480000 1.700000 -0.280000
v 0.480000 0.920000 -0.280000
v -0.480000 1.670000 0.280000
v -0.480000 1.710000 0.280000
v -0.480000 1.670000 -0.280000
v -0.480000 1.710000 -0.280000
v 0.480000 1.670000 0.280000
v 0.480000 1.710000 0.280000
v 0.480000 1.670000 -0.280000
v 0.480000 1.710000 -0.280000
vn -1.0000 -0.0000 -0.0000
vn -0.0000 -0.0000 -1.0000
vn 1.0000 -0.0000 -0.0000
vn -0.0000 -0.0000 1.0000
vn -0.0000 1.0000 -0.0000
vn -0.0000 -1.0000 -0.0000
vt 0.375000 0.000000
vt 0.625000 0.000000
vt 0.625000 0.250000
vt 0.375000 0.250000
vt 0.625000 0.500000
vt 0.375000 0.500000
vt 0.625000 0.750000
vt 0.375000 0.750000
vt 0.625000 1.000000
vt 0.375000 1.000000
vt 0.125000 0.500000
vt 0.125000 0.750000
vt 0.875000 0.500000
vt 0.875000 0.750000
s 0
usemtl Material.002
f 41/15/7 43/18/7 44/17/7 42/16/7
f 43/18/8 47/20/8 48/19/8 44/17/8
f 47/20/9 45/22/9 46/21/9 48/19/9
f 45/22/10 41/24/10 42/23/10 46/21/10
f 43/25/11 41/26/11 45/22/11 47/20/11
f 48/19/12 46/21/12 42/28/12 44/27/12
usemtl Glass.001
f 49/15/7 51/18/7 52/17/7 50/16/7
f 51/18/8 55/20/8 56/19/8 52/17/8
f 55/20/9 53/22/9 54/21/9 56/19/9
f 53/22/10 49/24/10 50/23/10 54/21/10
f 51/25/11 49/26/11 53/22/11 55/20/11
f 56/19/12 54/21/12 50/28/12 52/27/12
usemtl Material.003
f 57/15/7 59/18/7 60/17/7 58/16/7
f 59/18/8 63/20/8 64/19/8 60/17/8
f 63/20/9 61/22/9 62/21/9 64/19/9
f 61/22/10 57/24/10 58/23/10 62/21/10
f 59/25/11 57/26/11 61/22/11 63/20/11
f 64/19/12 62/21/12 58/28/12 60/27/12
usemtl Material.004
f 65/15/7 67/18/7 68/17/7 66/16/7
f 67/18/8 71/20/8 72/19/8 68/17/8
f 71/20/9 69/22/9 70/21/9 72/19/9
f 69/22/10 65/24/10 66/23/10 70/21/10
f 67/25/11 65/26/11 69/22/11 71/20/11
f 72/19/12 70/21/12 66/28/12 68/27/12
usemtl Material.005
f 73/15/9 75/18/9 76/17/9 74/16/9
f 75/18/10 79/20/10 80/19/10 76/17/10
f 79/20/7 77/22/7 78/21/7 80/19/7
f 77/22/8 73/24/8 74/23/8 78/21/8
f 75/25/11 73/26/11 77/22/11 79/20/11
f 80/19/12 78/21/12 74/28/12 76/27/12
